<!-- Save this as default-podcast.svg in your content directory -->
<svg xmlns="http://www.w3.org/2000/svg" viewBox="0 0 24 24" fill="#888" width="64" height="64">
  <path d="M12 3C7.03 3 3 7.03 3 12c0 2.39.95 4.57 2.66 6.28l1.42-1.42A7.963 7.963 0 0 1 5 12c0-3.87 3.13-7 7-7s7 3.13 7 7c0 2.21-.9 4.21-2.34 5.66l1.42 1.42A9.953 9.953 0 0 0 21 12c0-4.97-4.03-9-9-9zm0 4c-2.76 0-5 2.24-5 5 0 1.38.56 2.63 1.46 3.54l1.42-1.42A2.99 2.99 0 0 1 7 12c0-1.66 1.34-3 3-3s3 1.34 3 3c0 .83-.34 1.58-.88 2.12l1.42 1.42A4.978 4.978 0 0 0 17 12c0-2.76-2.24-5-5-5zm0 4c-.55 0-1 .45-1 1 0 .28.11.53.29.71l.71.71.71-.71A.996.996 0 0 0 13 12c0-.55-.45-1-1-1zm0 3c-1.1 0-2 .9-2 2v3h4v-3c0-1.1-.9-2-2-2z"/>
</svg>
